<svg width="32" height="30" viewBox="0 0 32 30" fill="none" xmlns="http://www.w3.org/2000/svg">
<g id="expand_more_FILL0_wght300_GRAD0_opsz48 1">
<path id="Vector" d="M16 18.4376C15.8667 18.4376 15.7444 18.4167 15.6333 18.3751C15.5222 18.3334 15.4222 18.2605 15.3333 18.1563L9 12.2188C8.86667 12.0938 8.8 11.9271 8.8 11.7188C8.8 11.5105 8.86667 11.3438 9 11.2188C9.17778 11.0521 9.36111 10.9792 9.55 11.0001C9.73889 11.0209 9.91111 11.0938 10.0667 11.2188L16 16.7813L21.9333 11.2188C22.0667 11.0938 22.2444 11.0261 22.4667 11.0157C22.6889 11.0053 22.8667 11.073 23 11.2188C23.1778 11.3646 23.2556 11.5365 23.2333 11.7344C23.2111 11.9323 23.1333 12.1042 23 12.2501L16.6667 18.1563C16.5778 18.2605 16.4778 18.3334 16.3667 18.3751C16.2556 18.4167 16.1333 18.4376 16 18.4376Z" fill="black"/>
</g>
</svg>
